<?xml version="1.0" encoding="utf-8"?>
<!-- Generator: Adobe Illustrator 27.5.0, SVG Export Plug-In . SVG Version: 6.00 Build 0)  -->
<svg version="1.1" xmlns="http://www.w3.org/2000/svg" xmlns:xlink="http://www.w3.org/1999/xlink" x="0px" y="0px"
	 viewBox="0 0 500 500" style="enable-background:new 0 0 500 500;" xml:space="preserve">

<g id="OBJECTS">
	<g>
		<g>
			<defs>
				<rect id="SVGID_1_" width="500" height="280.92"/>
			</defs>
			<clipPath id="SVGID_00000047774981019380291420000010642958063102053781_">
				<use xlink:href="#SVGID_1_"  style="overflow:visible;"/>
			</clipPath>
			
		</g>
		<g>
			<defs>
				<rect id="SVGID_00000158732847347419282940000004204956661590356648_" y="147.877" width="244.489" height="352.123"/>
			</defs>
			<clipPath id="SVGID_00000126304581884458624510000013622332031296395698_">
				<use xlink:href="#SVGID_00000158732847347419282940000004204956661590356648_"  style="overflow:visible;"/>
			</clipPath>
			
		</g>
		<g>
			<g>
				<path style="fill:#ffffff;" d="M356.25,403h-210c-11.046,0-20-8.954-20-20V83c0-11.046,8.954-20,20-20h210
					c11.046,0,20,8.954,20,20v300C376.25,394.046,367.296,403,356.25,403z"/>
			</g>
			<g>
				<rect x="144.708" y="83.599" style="fill:#FFFFFF;" width="213.085" height="296.985"/>
				<path style="fill:#35393A;" d="M358.301,381.093H144.198V83.089h214.103V381.093z M145.217,380.075h212.067V84.108H145.217
					V380.075z"/>
			</g>
			<rect x="161.667" y="125" style="fill:#EFEFEF;" width="68" height="70.114"/>
			<g>
				<path style="fill:#2C3437;" d="M192.122,129.023c0,0-13.814,1.652-13.935,16.615c-0.002,0.233-0.015,0.467-0.037,0.699
					c-0.101,1.06-0.099,6.151-0.068,11.272c0.038,6.477,5.298,11.707,11.775,11.707h4.738h2.16h2.1
					c6.487,0,11.751-5.247,11.775-11.734c0.022-5.938,0.027-12.12-0.038-13.199c-0.014-0.235-0.023-0.471-0.028-0.706
					c-0.103-5.27-1.702-8.657-3.619-10.829c-2.187-2.477-5.383-3.826-8.688-3.826H192.122"/>
				<g>
					<g>
						<path style="fill:#96D0DC;" d="M209.087,195.114H179.62v-9.325c0-8.137,6.596-14.733,14.733-14.733l0,0
							c8.137,0,14.733,6.596,14.733,14.733V195.114z"/>
						<g>
							<polygon style="fill:#CCCCCC;" points="205.571,195.114 205.571,187.478 203.95,195.114 							"/>
							<polygon style="fill:#CCCCCC;" points="183.135,195.114 183.135,187.478 184.757,195.114 							"/>
						</g>
					</g>
					<rect x="191.768" y="171.057" style="fill:#96D0DC;" width="4.899" height="24.058"/>
					<path style="fill:#F7A784;" d="M196.668,171.057c0,1.353-1.097,2.45-2.45,2.45c-1.353,0-2.45-1.097-2.45-2.45"/>
				</g>
				<circle style="fill:#FF856D;" cx="207.167" cy="149.448" r="2.179"/>
				<path style="fill:#FF856D;" d="M183.448,150.057c0,1.204-0.976,2.179-2.179,2.179c-1.204,0-2.179-0.976-2.179-2.179
					c0-1.204,0.976-2.179,2.179-2.179C182.472,147.877,183.448,148.853,183.448,150.057z"/>
				<g>
					<rect x="191.768" y="165.38" style="fill:#F7A784;" width="4.899" height="5.677"/>
				</g>
				<rect x="191.768" y="165.831" style="fill:#ED886C;" width="4.899" height="3.486"/>
				<path style="fill:#F7A784;" d="M207.167,154.912c0,7.167-5.822,12.974-12.995,12.949c-7.157-0.025-12.903-5.933-12.903-13.09
					v-15.368c0-2.681,2.173-4.854,4.854-4.854h16.19c2.681,0,4.854,2.173,4.854,4.854V154.912z"/>
				<path style="fill:#9F452B;" d="M191.538,129.023"/>
				<path style="fill:#2C3437;" d="M198.129,145.444c0,0,3.278-0.547,5.372,1.977c0,0.101-3.294-1.774-5.372-1.166V145.444z"/>
				<path style="fill:#2C3437;" d="M190.071,145.444c0,0-3.278-0.547-5.372,1.977c0,0.101,3.294-1.774,5.372-1.166V145.444z"/>
				<g>
					<g>
						<circle style="fill:#2C3437;" cx="200.061" cy="149.703" r="1.013"/>
						<circle style="fill:#2C3437;" cx="187.795" cy="149.703" r="1.013"/>
					</g>
					<path style="fill:#9F452B;" d="M190.963,159.535c0,0,2.382,1.875,5.93-0.253C196.842,159.18,193.852,162.677,190.963,159.535z"
						/>
					
						<path style="fill:none;stroke:#FF856D;stroke-width:0.6082;stroke-linecap:round;stroke-linejoin:round;stroke-miterlimit:10;" d="
						M194.539,153.322c-0.352,0.519-0.704,1.038-1.055,1.558c-0.104,0.154-0.213,0.323-0.203,0.509
						c0.016,0.296,0.315,0.486,0.589,0.599c0.273,0.113,0.587,0.227,0.707,0.497"/>
				</g>
				<path style="fill:none;stroke:#2C3437;stroke-width:0.9043;stroke-miterlimit:10;" d="M201.357,152.779h-2.594
					c-1.503,0-2.722-1.219-2.722-2.722v0c0-1.503,1.219-2.722,2.722-2.722h2.594c1.503,0,2.722,1.219,2.722,2.722v0
					C204.08,151.56,202.861,152.779,201.357,152.779z"/>
				<path style="fill:none;stroke:#2C3437;stroke-width:0.9043;stroke-miterlimit:10;" d="M189.468,152.779h-2.594
					c-1.503,0-2.722-1.219-2.722-2.722v0c0-1.503,1.219-2.722,2.722-2.722h2.594c1.503,0,2.722,1.219,2.722,2.722v0
					C192.19,151.56,190.971,152.779,189.468,152.779z"/>
				
					<line style="fill:none;stroke:#2C3437;stroke-width:0.9043;stroke-miterlimit:10;" x1="192.19" y1="149.703" x2="196.042" y2="149.703"/>
				
					<line style="fill:none;stroke:#2C3437;stroke-width:0.9043;stroke-miterlimit:10;" x1="203.502" y1="147.421" x2="208.605" y2="147.421"/>
				
					<line style="fill:none;stroke:#2C3437;stroke-width:0.9043;stroke-miterlimit:10;" x1="184.698" y1="147.421" x2="180.187" y2="147.421"/>
				<path style="fill:#2C3437;" d="M209.347,142.837c0,0,0.971-2.191,0.723-3.546c-3.371-12.363-14.638-11.464-14.638-11.464l0,0
					c-0.723-0.04-1.173-0.004-1.213-0.004c-8.853,0-13.474,10.358-13.474,10.358l0.413-0.247c-0.718,1.305-0.712,2.837-0.712,4.52
					l-1.357,6.072c0,0,15.361-2.692,20.241-9.103c1.428,0.38,7.837,4.404,7.837,16.073c0.676-0.405,1.919-10.103,1.919-10.103
					l-1.235-6.381c0.224,0.11,0.423,0.215,0.593,0.315L209.347,142.837z M207.044,135.325l0.005,0.011
					c-0.002-0.004-0.005-0.008-0.007-0.012L207.044,135.325z M207.798,136.821l0.004,0.007l0,0.001
					C207.8,136.827,207.799,136.824,207.798,136.821z"/>
				<path style="opacity:0.2;fill:#F2F2F2;" d="M180.187,146.41c0,0,14.664-2.31,17.942-9.582
					C197.927,137.132,192.25,141.8,180.187,146.41z"/>
				<path style="opacity:0.2;fill:#F2F2F2;" d="M180.187,144.814c0,0,1.571-13.256,14.166-14.878
					C194.277,130.341,183.127,133.134,180.187,144.814z"/>
				<path style="opacity:0.2;fill:#F2F2F2;" d="M200.816,131.253c0,0,7.418,3.853,7.789,14.141
					C208.577,145.648,205.124,133.585,200.816,131.253z"/>
			</g>
			<line style="fill:none;stroke:#CCCCCC;stroke-width:7;stroke-miterlimit:10;" x1="248" y1="131.253" x2="275.333" y2="131.253"/>
			
				<line style="fill:none;stroke:#CCCCCC;stroke-width:7;stroke-miterlimit:10;" x1="279.083" y1="131.253" x2="333.5" y2="131.253"/>
			
				<line style="fill:none;stroke:#CCCCCC;stroke-width:7;stroke-miterlimit:10;" x1="298.333" y1="151.205" x2="333.5" y2="151.205"/>
			<line style="fill:none;stroke:#CCCCCC;stroke-width:7;stroke-miterlimit:10;" x1="311" y1="171.158" x2="333.5" y2="171.158"/>
			
				<line style="fill:none;stroke:#CCCCCC;stroke-width:7;stroke-miterlimit:10;" x1="275.333" y1="171.158" x2="306.292" y2="171.158"/>
			<line style="fill:none;stroke:#CCCCCC;stroke-width:7;stroke-miterlimit:10;" x1="248" y1="171.158" x2="267" y2="171.158"/>
			<line style="fill:none;stroke:#CCCCCC;stroke-width:7;stroke-miterlimit:10;" x1="293.667" y1="191.11" x2="333.5" y2="191.11"/>
			<line style="fill:none;stroke:#CCCCCC;stroke-width:7;stroke-miterlimit:10;" x1="248" y1="191.11" x2="285" y2="191.11"/>
			<line style="fill:none;stroke:#CCCCCC;stroke-width:7;stroke-miterlimit:10;" x1="293.667" y1="151.205" x2="248" y2="151.205"/>
			
				<line style="fill:none;stroke:#CCCCCC;stroke-width:7;stroke-miterlimit:10;" x1="290.813" y1="213.563" x2="333.5" y2="213.563"/>
			<line style="fill:none;stroke:#CCCCCC;stroke-width:7;stroke-miterlimit:10;" x1="210.11" y1="213.563" x2="282" y2="213.563"/>
			
				<line style="fill:none;stroke:#CCCCCC;stroke-width:7;stroke-miterlimit:10;" x1="161.667" y1="213.563" x2="200.816" y2="213.563"/>
			<line style="fill:none;stroke:#CCCCCC;stroke-width:7;stroke-miterlimit:10;" x1="253.5" y1="236.015" x2="333.5" y2="236.015"/>
			
				<line style="fill:none;stroke:#CCCCCC;stroke-width:7;stroke-miterlimit:10;" x1="161.667" y1="236.015" x2="241.5" y2="236.015"/>
			<line style="fill:none;stroke:#CCCCCC;stroke-width:7;stroke-miterlimit:10;" x1="280" y1="258.468" x2="333.5" y2="258.468"/>
			<line style="fill:none;stroke:#CCCCCC;stroke-width:7;stroke-miterlimit:10;" x1="161.667" y1="258.468" x2="271" y2="258.468"/>
			<line style="fill:none;stroke:#CCCCCC;stroke-width:7;stroke-miterlimit:10;" x1="276.667" y1="280.92" x2="333.5" y2="280.92"/>
			<line style="fill:none;stroke:#CCCCCC;stroke-width:7;stroke-miterlimit:10;" x1="209.087" y1="280.92" x2="266.5" y2="280.92"/>
			
				<line style="fill:none;stroke:#CCCCCC;stroke-width:7;stroke-miterlimit:10;" x1="161.667" y1="280.92" x2="199.333" y2="280.92"/>
			<line style="fill:none;stroke:#CCCCCC;stroke-width:7;stroke-miterlimit:10;" x1="253.5" y1="303.373" x2="333.5" y2="303.373"/>
			<line style="fill:none;stroke:#CCCCCC;stroke-width:7;stroke-miterlimit:10;" x1="161.667" y1="303.373" x2="240" y2="303.373"/>
			<line style="fill:none;stroke:#CCCCCC;stroke-width:7;stroke-miterlimit:10;" x1="295" y1="325.826" x2="333.5" y2="325.826"/>
			
				<line style="fill:none;stroke:#CCCCCC;stroke-width:7;stroke-miterlimit:10;" x1="225.667" y1="325.826" x2="286.333" y2="325.826"/>
			
				<line style="fill:none;stroke:#CCCCCC;stroke-width:7;stroke-miterlimit:10;" x1="161.667" y1="325.826" x2="216.333" y2="325.826"/>
			<line style="fill:none;stroke:#CCCCCC;stroke-width:7;stroke-miterlimit:10;" x1="256" y1="348.278" x2="333.5" y2="348.278"/>
			
				<line style="fill:none;stroke:#CCCCCC;stroke-width:7;stroke-miterlimit:10;" x1="161.667" y1="348.278" x2="246.333" y2="348.278"/>
			<path style="fill:#FFFFFF;" d="M303.25,78h-104c-1.933,0-3.5-1.567-3.5-3.5l0,0c0-1.933,1.567-3.5,3.5-3.5h104
				c1.933,0,3.5,1.567,3.5,3.5l0,0C306.75,76.433,305.183,78,303.25,78z"/>
			<path style="fill:none;stroke:#CCCCCC;stroke-miterlimit:10;" d="M195.75,74.5v15.667c0,5.983,4.85,10.833,10.833,10.833h89.333
				c5.983,0,10.833-4.85,10.833-10.833V74.5"/>
			<path style="fill:#CCCCCC;" d="M277.75,108.5h-53c-3.728,0-6.75-3.022-6.75-6.75l0,0c0-3.728,3.022-6.75,6.75-6.75h53
				c3.728,0,6.75,3.022,6.75,6.75l0,0C284.5,105.478,281.478,108.5,277.75,108.5z"/>
		</g>
		<g>
			<defs>
				
					<rect id="SVGID_00000041983383365335004330000005536074350460767374_" x="259.623" y="159.279" width="240.377" height="341.658"/>
			</defs>
			<clipPath id="SVGID_00000080179410119822909310000013276140338721148841_">
				<use xlink:href="#SVGID_00000041983383365335004330000005536074350460767374_"  style="overflow:visible;"/>
			</clipPath>
			<g style="clip-path:url(#SVGID_00000080179410119822909310000013276140338721148841_);">
				<g>
					<path style="fill:#E7A479;" d="M423.83,238.241c2.67,3.486,4.478,7.541,6.206,11.577c3.324,7.764,6.445,15.615,9.357,23.542
						c3.107,8.454,5.995,17.075,7.036,26.022c0.676,5.809,0.563,11.678,0.449,17.526c-0.498,25.613-0.997,51.226-1.496,76.839
						c-3.816-4.545-6.056-10.175-8.154-15.727c-10.483-27.739-19.014-56.215-25.509-85.149c-2.119-9.441-4.032-18.966-7.319-28.066
						c-2.209-6.115-5.022-11.992-7.83-17.856c-4.338-9.059-8.49-18.24-13.075-27.175c6.296-2.323,13.346,2.764,19.227,4.958
						C410.666,227.695,418.536,231.329,423.83,238.241z"/>
					<path style="fill:#CE7849;" d="M313.093,244.385c1.727,1.414,3.893,2.536,4.989,2.793c4.114,0.963,7.963-2.799,11.759-3.742
						c2.436-0.605,4.961-0.728,7.468-0.849c5.891-0.283,11.783-0.566,17.675-0.849c0.795-0.038,1.629-0.069,2.343,0.282
						c0.76,0.373,1.257,1.114,1.736,1.812c2.276,3.316,4.928,6.374,7.89,9.095c1,0.918,2.079,1.865,2.493,3.158
						c0.666,2.081-0.589,4.224-1.572,6.175c-2.527,5.015-3.472,10.813-2.668,16.371c0.129,0.894,0.3,1.824,0.023,2.683
						c-0.351,1.092-1.337,1.83-2.222,2.557c-6.031,4.955-9.577,12.796-9.316,20.597c8.214,0.452,16.527-1.004,24.098-4.223
						c4.226-1.796,8.306-4.206,11.228-7.747c3.316-4.018,4.909-9.234,5.386-14.421c0.478-5.187-0.082-10.408-0.641-15.587
						c-0.521-4.822-1.073-9.758-3.215-14.11c-2.1-4.265-5.62-7.705-9.559-10.367c-5.393-3.646-11.614-5.95-17.979-7.317
						c-11.171-2.401-23.406-3.817-34.062,0.78c-5.602,2.417-11.205,4.833-16.807,7.25c-0.501,0.216-1.034,0.46-1.311,0.93
						C309.967,241.117,311.292,242.91,313.093,244.385z"/>
					<path style="fill:#E7A479;" d="M372.751,280.631c-0.018-2.795-0.584-5.633,0.161-8.317c0.901-3.245,3.532-5.654,5.606-8.307
						c0.407-0.52,0.811-1.101,0.827-1.762c0.013-0.572-0.268-1.104-0.542-1.606c-5.614-10.287-5.502-20.538-18.262-24.319
						c-13.04-3.865-28.828-1.392-42.331-1.09c-4.411,0.099-9.607-0.619-10.629-6.066c-0.064-0.341-0.098-0.706,0.039-1.024
						c0.147-0.343,0.468-0.577,0.785-0.774c2.21-1.371,4.871-1.736,7.382-2.414c6.869-1.856,13.088-4.688,20.123-6.037
						c10.934-2.096,21.868-4.192,32.802-6.287c1.554-0.298,3.166-0.595,4.703-0.218c1.598,0.392,2.928,1.466,4.199,2.51
						c5.996,4.924,11.993,9.847,17.989,14.771c4.276,3.511,8.727,7.259,10.699,12.428c1.673,4.383,1.344,9.238,1.061,13.922
						c-1.066,17.631-1.133,35.323-0.203,52.962c0.269,5.098,0.497,11.44-3.08,15.559c-6.727,7.746-26.112,1.181-33.423-3.046
						c-9.904-5.727-13.264-15.54-6.108-25.03c3.276-4.344,7.446-8.516,8.103-13.917C372.73,281.926,372.755,281.28,372.751,280.631z
						"/>
					<path style="fill:#FEBE92;" d="M448.583,357.166c-1.968-20.377-3.014-39.906-6.873-60.01c-0.066-0.343,0.556,4.752,0.625,4.409
						c1.338-6.611-0.726-13.485-3.848-19.464c-3.121-5.979-7.283-11.355-10.596-17.231c-7.819-13.866-10.707-30.121-18.811-43.822
						c-1.953-3.302-4.322-6.544-7.709-8.346c-2.683-1.427-5.775-1.829-8.79-2.207c-10.106-1.267-20.212-2.535-30.318-3.802
						c-6.613-0.829-13.268-1.66-19.923-1.303c-10.438,0.561-19.896,3.434-30.024,0.847c-2.092-0.534-4.118,1.611-4.221,3.767
						c-0.103,2.157,1.132,4.142,2.49,5.821c4.897,6.053,12.105,10.188,19.802,11.36c5.622,0.856,11.397,0.185,17.009,1.097
						c4.996,0.812,9.699,2.85,14.32,4.917c8.262,3.696,16.455,7.546,24.573,11.547c2.633,1.297,5.578,3.03,6.013,5.932
						c0.392,2.612-1.442,4.964-2.974,7.116c-7.233,10.157-9.598,23.626-6.258,35.639c1.777,6.394-5.988,8.621-11.371,9.536
						c-5.916,1.005-9.458-2.795-12.558-7.818c-5.535-8.968-7.701-19.533-10.883-29.58c-0.132-0.686-0.459-1.388-0.696-2.043
						c-1.87-5.166-4.284-10.174-7.095-14.892c-1.555-2.61-3.254-5.144-5.174-7.5c-3.923-4.814-10.446-6.602-16.228-4.494
						c-3.53,1.287-6.237,4.28-7.919,7.64c-3.692,7.375-1.509,14.517-0.207,22.159c0.767,4.505,1.522,9.012,2.259,13.522
						c1.528,9.355,3.663,18.723,7.794,27.307c6.561,13.634,10.216,27.282,14.215,41.539c4.212,15.018,13.91,29.65,22.266,42.635
						c17.504,27.201,38.402,52.438,51.956,82.02c7.312,15.96,12.277,32.862,16.204,49.939c1.64,7.135,4.191,42.963,11.03,45.022
						c3.123,0.94,10.841-5.646,13.864-6.794c8.189-3.11,17.621-4.46,26.162-6.37c5.4-1.208,48.853-13.032,51.219-9.509
						C491.206,491.124,454.996,423.566,448.583,357.166z"/>
					<path style="fill:#F6FAFD;" d="M311.075,254.342c0,0-1.348-20.055,20.358-10.129c0.834,0.275,5.387,15.096,5.122,18.708
						c-0.56-1.109-8.857,7.315-20.245,8.189C315.978,271.555,311.075,254.342,311.075,254.342z"/>
					<path style="fill:#F6FAFD;" d="M316.025,210.917c4.731,1.494,9.812,1.87,14.711,1.09c-0.395-1.753-0.79-3.507-1.184-5.26
						c-5.186,0.592-10.296,0.916-15.563-0.135c0.204,1.641,0.543,3.221,1.136,3.839
						C315.361,210.698,315.699,210.814,316.025,210.917z"/>
					<path style="fill:#EFAB7C;" d="M335.552,213.987c-0.311-2.634-0.366-5.294-0.222-7.942c-0.411,0.049-0.822,0.099-1.232,0.149
						C334.341,208.83,334.818,211.444,335.552,213.987z"/>
					<path style="fill:#EFAB7C;" d="M339.514,211.182c-0.191-1.87,0.017-3.747,0.311-5.61c-0.344,0.03-0.687,0.06-1.029,0.093
						c-0.003,0.221-0.015,0.442,0.002,0.665C338.921,207.962,339.161,209.584,339.514,211.182z"/>
					<path style="fill:#EFAB7C;" d="M344.523,227.951c1.048-0.708,2.064-1.43,3.037-2.116c1.701-1.2,3.424-2.42,4.75-4.025
						c-2.179,2.629-7.284,4.561-10.484,5.983C342.727,227.825,343.626,227.877,344.523,227.951z"/>
					<path style="fill:#EFAB7C;" d="M373.462,238.587c2.49-0.756,4.912-1.755,7.316-2.76c-2.956,1.224-5.981,1.801-9.108,1.938
						C372.266,238.042,372.867,238.308,373.462,238.587z"/>
					<path style="fill:#EFAB7C;" d="M396.891,222.848c-0.604-3.901-0.368-7.785,0.338-11.607c-0.627-0.141-1.263-0.253-1.901-0.355
						C394.464,215.221,396.255,218.741,396.891,222.848z"/>
					<path style="fill:#E7A479;" d="M361.797,298.886c1.539,8.031,2.066,16.256,1.526,24.416c0.839-7.339,1.13-14.874,0.63-22.302
						C363.189,300.395,362.474,299.683,361.797,298.886z"/>
					<path style="fill:#EFAB7C;" d="M409.82,253.167c-6.454-1.009-12.788-2.77-18.848-5.209c0.68,0.778,1.173,1.671,1.331,2.721
						c0.093,0.617,0.053,1.218-0.069,1.807C397.954,254.002,404.005,254.283,409.82,253.167z"/>
					<path style="fill:#EFAB7C;" d="M341.179,266.413c-6.612,4.534-14.45,8.009-22.407,9.243c3.325-1.729,5.516-3.453,9.242-4.424
						C332.213,270.137,337.55,268.896,341.179,266.413z"/>
					<path style="fill:#EFAB7C;" d="M320.644,279.109c3.698,0.867,7.617,0.891,11.273-0.138c3.541-0.997,7.069-3.052,9.31-6.018
						c-2.757,1.569-5.921,2.3-8.804,3.621C328.716,278.273,324.662,278.735,320.644,279.109z"/>
				</g>
				<path style="fill:#6BD2FD;" d="M376.225,432.982v13.534c0,0,81.442-19.046,93.442-37.614c-1.333,0.765-8-10.568-8-10.568
					S453.449,417.631,376.225,432.982z"/>
				<path style="fill:#FFFFFF;" d="M485,395.015c0,0-37.397,39.985-126.699,54.985c-0.301,1,42.094,152,42.094,152
					S564,543,563,541.5S485,395.015,485,395.015z"/>
				<path style="opacity:0.1;fill:#35393A;" d="M484.413,571.455c-16.213-43.822-52.853-142.398-53.84-140.923
					c-9.495,5.291-31.04,10.765-48.151,14.556c-7.578,1.826-15.612,3.484-24.12,4.913c-0.301,1,42.094,152,42.094,152
					S442.877,586.68,484.413,571.455z"/>
				<g>
					<path style="fill:#35393A;" d="M277.793,203.517c0,0,93.965,39.478,182.2,105.275c0.573,1.518,3.438,9.11-9.74,12.653
						C449.68,321.952,305.868,232.873,277.793,203.517z"/>
					<path style="fill:#999999;" d="M277.793,203.517c0,0,8.081,7.82,15.489,13.549c0.088,0.069,5.529,0.486,4.552-4.492
						C297.492,212.413,277.793,203.517,277.793,203.517z"/>
					<path style="fill:#1A1A1A;" d="M277.793,203.517l6.678,6.163c0,0,2.645-0.059,2.359-2.21
						C286.716,207.547,277.793,203.517,277.793,203.517z"/>
					<path style="fill:#1A1A1A;" d="M413.025,276.321c-1.292,4.626-4.351,9.954-10.983,15.267c0.482,0.307,0.962,0.614,1.439,0.918
						c6.489-5.255,9.65-10.542,11.073-15.203C414.044,276.974,413.536,276.649,413.025,276.321z"/>
					<path style="opacity:0.2;fill:#F2F2F2;" d="M305.022,218.225c0,0,75.917,38.466,101.986,59.217
						c0,0.759-2.578,3.543-2.578,3.543L305.022,218.225z"/>
					<path style="opacity:0.2;fill:#F2F2F2;" d="M414.555,286.933l40.295,28.47c0,0,4.015-1.371,2.793-5.314
						c0.215-0.19-42.112-26.951-42.112-26.951L414.555,286.933z"/>
				</g>
			</g>
		</g>
	</g>
</g>
</svg>
