<svg xmlns="http://www.w3.org/2000/svg" version="1.1" xmlns:xlink="http://www.w3.org/1999/xlink" width="512" height="512" x="0" y="0" viewBox="0 0 64 64" style="enable-background:new 0 0 512 512" xml:space="preserve"><g><path d="M10 14.375h44a2 2 0 0 0 0-4H10a2 2 0 0 0 0 4zM10 24.188h29a2 2 0 0 0 0-4H10a2 2 0 0 0 0 4zM10 34h38a2 2 0 0 0 0-4H10a2 2 0 0 0 0 4zM10 43.813h30a2 2 0 0 0 0-4H10a2 2 0 0 0 0 4zM54 49.625H10a2 2 0 0 0 0 4h44a2 2 0 0 0 0-4z" fill="#000000" opacity="1" data-original="#000000"></path></g></svg>