<?xml version="1.0" encoding="utf-8"?>
<!-- Generator: Adobe Illustrator 27.5.0, SVG Export Plug-In . SVG Version: 6.00 Build 0)  -->
<svg version="1.1" xmlns="http://www.w3.org/2000/svg" xmlns:xlink="http://www.w3.org/1999/xlink" x="0px" y="0px"
	 viewBox="0 0 2000 2000" style="enable-background:new 0 0 2000 2000;" xml:space="preserve">
<g>
	<polygon style="fill:#0E2549;" points="1613.093,1025.702 1659.687,831.74 1604.932,1014.76 	"/>
	<polygon style="fill:#EAB7C2;" points="1616.061,1064.092 1636.957,997.806 1600.281,986.244 1579.385,1052.529 1507.453,1029.854 
		1379.34,1436.238 1559.879,1493.153 1687.992,1086.769 	"/>
	<path style="fill:#1B2746;" d="M1617.941,1063.112l20.897-66.286l-39.537-12.465l-20.897,66.287l-71.931-22.678l-129.016,409.247
		l183.4,57.817l129.016-409.246L1617.941,1063.112z M1601.261,988.125l33.814,10.66l-19.994,63.424l-33.814-10.66L1601.261,988.125z
		 M1558.899,1491.271l-177.678-56.013l127.211-403.524l88.839,28.007l19.769,6.232l0,0l69.07,21.774L1558.899,1491.271z"/>
	<path style="fill:#0E2549;" d="M1614.048,1171.634c-0.148,0-0.301-0.022-0.45-0.069l-93.749-29.514
		c-0.79-0.249-1.229-1.091-0.98-1.881c0.248-0.79,1.089-1.229,1.881-0.98l93.749,29.514c0.79,0.249,1.229,1.091,0.98,1.881
		C1615.277,1171.225,1614.686,1171.634,1614.048,1171.634z"/>
	<path style="fill:#0E2549;" d="M1584.538,1265.514c-0.148,0-0.301-0.022-0.45-0.069l-93.75-29.514
		c-0.79-0.249-1.229-1.091-0.98-1.881c0.248-0.79,1.088-1.23,1.881-0.98l93.75,29.514c0.79,0.249,1.229,1.091,0.98,1.881
		C1585.768,1265.104,1585.176,1265.514,1584.538,1265.514z"/>
	<path style="fill:#0E2549;" d="M1607.116,1117.866c-0.148,0-0.301-0.022-0.45-0.069l-50.39-15.864
		c-0.79-0.249-1.229-1.091-0.98-1.881c0.248-0.79,1.089-1.229,1.881-0.98l50.39,15.864c0.79,0.249,1.229,1.091,0.98,1.881
		C1608.346,1117.457,1607.754,1117.866,1607.116,1117.866z"/>
	<path style="fill:#0E2549;" d="M1577.565,1211.733c-0.148,0-0.301-0.022-0.45-0.069l-50.39-15.863
		c-0.79-0.249-1.229-1.091-0.98-1.881c0.247-0.79,1.088-1.229,1.881-0.98l50.39,15.863c0.79,0.249,1.229,1.091,0.98,1.881
		C1578.795,1211.324,1578.203,1211.733,1577.565,1211.733z"/>
	<path style="fill:#0E2549;" d="M1560.516,1355.849c-0.148,0-0.301-0.022-0.45-0.069l-93.749-29.513
		c-0.79-0.249-1.229-1.091-0.98-1.881c0.248-0.79,1.089-1.229,1.881-0.98l93.749,29.513c0.79,0.249,1.229,1.091,0.98,1.881
		C1561.745,1355.439,1561.153,1355.849,1560.516,1355.849z"/>
	<path style="fill:#0E2549;" d="M1553.584,1302.081c-0.148,0-0.301-0.022-0.45-0.069l-50.391-15.863
		c-0.79-0.249-1.229-1.091-0.98-1.881c0.248-0.79,1.088-1.229,1.881-0.98l50.391,15.863c0.79,0.249,1.229,1.091,0.98,1.881
		C1554.813,1301.672,1554.222,1302.081,1553.584,1302.081z"/>
	<path style="fill:#0E2549;" d="M1524.032,1395.949c-0.148,0-0.301-0.022-0.45-0.069l-50.39-15.863
		c-0.79-0.249-1.229-1.091-0.98-1.881c0.248-0.79,1.089-1.229,1.881-0.98l50.39,15.863c0.79,0.249,1.229,1.091,0.98,1.881
		C1525.262,1395.54,1524.67,1395.949,1524.032,1395.949z"/>
</g>
<g>
	<polygon style="fill:#F9E5EF;" points="547.529,1758.141 1478.531,1758.141 1478.531,660.299 1244.576,448.417 547.529,451.876 	
		"/>
	<path style="fill:#1B2746;" d="M1245.584,447.305l-0.432-0.391l-699.123,3.47v1309.257h934.003V659.634L1245.584,447.305z
		 M1246.077,451.799l228.563,207h-228.563V451.799z M549.029,1756.641V453.369l694.048-3.445v211.875h233.955v1094.842H549.029z"/>
	<path style="fill:#1B2746;" d="M661.496,1675.433c-1.898,0-3.401-1.43-4.163-2.153c-6.891-6.555-14.219-14.354-13.954-24.001
		c0.197-7.135,4.886-14.22,12.235-18.491c6.468-3.758,14.039-5.104,21.259-5.997c3.072-0.381,6.148-0.698,9.228-0.953l17.182-40.09
		c0.411-0.957,0.821-1.914,1.233-2.873c-17.847,7.187-36.395,12.616-55.304,16.182c-3.675,0.692-7.269,1.25-10.833,0.455
		c-1.765-0.393-3.396-1.094-4.972-1.772c-1.688-0.727-3.282-1.412-4.946-1.698c-2.882-0.5-5.839,0.211-8.971,0.957
		c-3.322,0.794-6.755,1.614-10.278,0.976c-2.949-0.534-5.486-2.013-7.939-3.442c-2.021-1.179-3.931-2.292-6.005-2.874
		c-5.513-1.551-11.968,0.651-19.731,6.726c-0.652,0.509-1.594,0.396-2.105-0.257c-0.511-0.653-0.395-1.596,0.257-2.106
		c8.567-6.704,15.891-9.077,22.391-7.251c2.442,0.686,4.609,1.949,6.704,3.17c2.332,1.359,4.534,2.643,6.964,3.084
		c2.902,0.525,5.885-0.187,9.045-0.942c3.289-0.785,6.689-1.596,10.178-0.996c2.015,0.348,3.849,1.137,5.622,1.899
		c1.517,0.652,2.949,1.269,4.439,1.601c3.008,0.668,6.269,0.157,9.626-0.475c19.712-3.717,39.027-9.481,57.553-17.168
		c7.686-17.771,15.998-35.746,28.045-51.329c3.813-4.934,9.702-9.109,14.79-6.027c2.001,1.211,3.396,3.368,4.263,6.595
		c2.715,10.097-0.798,22.112-9.169,31.357c-7.582,8.374-17.703,13.668-27.51,18.141c-2.698,1.229-5.412,2.418-8.146,3.565
		c-0.819,1.899-1.632,3.796-2.442,5.687l-16.567,38.655c18.153-1.227,36.378-0.258,54.345,2.896l0.356,0.063
		c4.564,0.805,9.285,1.635,13.274-0.062c2.282-0.97,4.17-2.693,6.168-4.52c0.705-0.643,1.408-1.285,2.13-1.896
		c6.069-5.134,13.78-8.218,21.714-8.684c1.911-0.114,4.122-0.067,6.001,1.132c0.787,0.502,1.413,1.152,1.967,1.726
		c0.511,0.531,0.994,1.032,1.519,1.338c1.099,0.64,2.617,0.58,4.342,0.447l26.264-2.044c0.827-0.069,1.547,0.554,1.611,1.379
		c0.064,0.826-0.553,1.548-1.379,1.611l-26.263,2.044c-1.725,0.136-4.087,0.317-6.084-0.846c-0.886-0.516-1.568-1.224-2.17-1.848
		c-0.479-0.498-0.933-0.968-1.419-1.278c-1.157-0.738-2.78-0.752-4.211-0.667c-7.291,0.429-14.377,3.263-19.953,7.98
		c-0.693,0.586-1.368,1.203-2.044,1.82c-2.097,1.915-4.264,3.896-7.018,5.066c-4.806,2.042-10.204,1.093-14.969,0.255l-0.354-0.063
		c-18.231-3.201-36.737-4.122-55.156-2.749l-10.513,24.53c-3.282,7.657-6.675,15.574-12.352,22.069
		c-0.832,0.952-1.791,1.864-3.161,2.095C661.907,1675.416,661.699,1675.433,661.496,1675.433z M684.762,1626.964
		c-2.509,0.225-5.016,0.493-7.52,0.803c-6.904,0.855-14.119,2.127-20.12,5.614c-5.063,2.941-10.543,8.685-10.744,15.979
		c-0.232,8.415,6.306,15.356,13.021,21.745c0.746,0.709,1.601,1.417,2.222,1.316c0.44-0.074,0.932-0.577,1.398-1.11
		c5.366-6.138,8.663-13.834,11.853-21.276L684.762,1626.964z M745.319,1521.552c-3.004,0-6.387,2.913-8.69,5.894
		c-11.182,14.465-19.143,31.147-26.41,47.796c1.728-0.748,3.452-1.513,5.165-2.295c9.516-4.339,19.315-9.453,26.532-17.424
		c7.692-8.497,10.948-19.442,8.495-28.564c-0.657-2.443-1.612-4.016-2.92-4.808C746.807,1521.736,746.075,1521.552,745.319,1521.552
		z"/>
	
		<ellipse transform="matrix(0.0416 -0.9991 0.9991 0.0416 -371.2726 2741.856)" style="fill:#EAB7C2;" cx="1243.5" cy="1564.446" rx="112.206" ry="112.206"/>
	<path style="fill:#1B2746;" d="M1243.501,1678.152c-62.698,0-113.707-51.009-113.707-113.706s51.009-113.706,113.707-113.706
		c62.697,0,113.706,51.009,113.706,113.706S1306.198,1678.152,1243.501,1678.152z M1243.501,1453.74
		c-61.044,0-110.707,49.662-110.707,110.706s49.663,110.706,110.707,110.706s110.706-49.662,110.706-110.706
		S1304.545,1453.74,1243.501,1453.74z"/>
	<path style="fill:#E2474B;" d="M1313.688,1564.446c0,38.763-31.424,70.187-70.188,70.187c-38.763,0-70.187-31.424-70.187-70.187
		c0-38.764,31.424-70.188,70.187-70.188C1282.264,1494.259,1313.688,1525.683,1313.688,1564.446z"/>
	<path style="fill:#FFFFFF;" d="M1268.814,1520.798c-0.242,0-0.487-0.059-0.715-0.182c-7.501-4.075-16.007-6.229-24.599-6.229
		c-6.712,0-13.241,1.269-19.405,3.771c-0.769,0.313-1.644-0.058-1.954-0.825c-0.312-0.768,0.058-1.643,0.825-1.954
		c6.524-2.649,13.434-3.992,20.534-3.992c9.09,0,18.092,2.279,26.03,6.592c0.729,0.396,0.998,1.307,0.603,2.034
		C1269.861,1520.515,1269.347,1520.798,1268.814,1520.798z"/>
	<path style="fill:#FFFFFF;" d="M1199.758,1597.62c-0.477,0-0.944-0.227-1.235-0.648c-6.3-9.13-9.63-19.841-9.63-30.976
		c0-0.828,0.672-1.5,1.5-1.5s1.5,0.672,1.5,1.5c0,10.523,3.146,20.646,9.099,29.272c0.471,0.682,0.3,1.615-0.383,2.086
		C1200.349,1597.534,1200.052,1597.62,1199.758,1597.62z"/>
	<path style="fill:#FFFFFF;" d="M1233.871,1619.732c-0.09,0-0.181-0.008-0.272-0.024c-10.76-1.971-20.587-7.092-28.419-14.809
		c-0.59-0.581-0.598-1.531-0.016-2.121c0.58-0.59,1.531-0.598,2.121-0.016c7.402,7.293,16.688,12.132,26.854,13.994
		c0.814,0.149,1.354,0.931,1.205,1.746C1235.212,1619.227,1234.581,1619.732,1233.871,1619.732z"/>
	<path style="fill:#FFFFFF;" d="M1243.501,1620.604c-0.828,0-1.5-0.672-1.5-1.5s0.672-1.5,1.5-1.5c7.948,0,15.57-1.758,22.654-5.225
		c4.573-2.238,8.787-5.14,12.525-8.623c0.605-0.563,1.554-0.531,2.12,0.075c0.564,0.605,0.531,1.555-0.075,2.12
		c-3.954,3.685-8.412,6.754-13.252,9.123C1259.977,1618.743,1251.91,1620.604,1243.501,1620.604z"/>
	<path style="fill:#FFFFFF;" d="M1288.834,1595.174c-0.268,0-0.538-0.071-0.782-0.221c-0.706-0.433-0.929-1.355-0.496-2.063
		c2.652-4.334,4.641-9.019,5.91-13.925c1.09-4.212,1.643-8.576,1.643-12.97c0-3.779-0.41-7.548-1.219-11.2
		c-0.179-0.809,0.332-1.609,1.141-1.789c0.817-0.173,1.61,0.334,1.789,1.141c0.855,3.865,1.289,7.852,1.289,11.849
		c0,4.647-0.585,9.264-1.738,13.722c-1.344,5.192-3.448,10.151-6.256,14.739C1289.831,1594.919,1289.339,1595.174,1288.834,1595.174
		z"/>
	<path style="fill:#E2474B;" d="M1639.652,1499.562v-78.343h-192.177v78.343c-29.593,1.797-53.956,28.547-53.956,59.628v198.951
		h300.089v-198.951C1693.608,1528.108,1669.945,1502.558,1639.652,1499.562z"/>
	<polygon style="fill:#FFFFFF;" points="1693.608,1703.082 1514.544,1703.082 1512.544,1572.588 1693.608,1572.588 	"/>
	<path style="fill:#0E2549;" d="M1641.152,1498.218v-78.499h-195.177v78.449c-29.88,2.598-53.956,29.662-53.956,61.021v200.451
		h303.09v-55.06v-133.493v-11.898C1695.109,1527.919,1672.009,1501.942,1641.152,1498.218z M1613.147,1422.719h25.005v75.375
		h-25.005V1422.719z M1585.265,1422.719h24.883v75.375h-24.883V1422.719z M1558.089,1422.719h24.176v75.375h-24.176V1422.719z
		 M1530.912,1422.719h24.177v75.375h-24.177V1422.719z M1504.089,1422.719h23.823v75.375h-23.823V1422.719z M1476.794,1422.719
		h24.295v75.375h-24.295V1422.719z M1448.976,1422.719h24.818v75.375h-24.818V1422.719z M1692.109,1701.581h-176.088l-1.954-127.493
		h178.042V1701.581z M1511.021,1571.088l2.046,133.493h179.043v52.06h-297.09v-197.451c0-30.152,23.354-56.119,52.144-58.096
		h192.489c0.032,0,0.063-0.008,0.094-0.01c29.868,3.077,52.363,28.011,52.363,58.105v11.898H1511.021z"/>
</g>
<g>
	<path style="fill:#0E2549;" d="M479.177,779.077c-6.996-8.378-40.547-21.483-60.246-10.795
		c-26.171,9.644-47.762,34.055-40.023,65.259c-5.221-1.356-11.589-0.534-19.15,3.624c-18.372,10.1-16.929,69.245,31.128,43.802
		c3.828-2.027,5.936-7.713,6.244-14.494c1.981,2.31,4.126,4.639,6.445,6.983c41.114,41.568,73.593-23.67,73.593-23.67
		S509.842,815.802,479.177,779.077z"/>
	<path style="fill:#FFFFFF;" d="M405.723,851.896c0,0-1.829,54.012-4.097,56.691c-7.76,9.171-29.246,16.148-34.099,17.074
		c-4.853,0.926,75.362,38.583,75.362,38.583l41.091-16.465l-14.25-14.927c0,0-12.362-7.419-17.571-13.671
		c-5.209-6.252-3.864-61.241-3.864-61.241L405.723,851.896z"/>
	<path style="fill:#0E2549;" d="M442.842,965.879l-0.59-0.277c-0.19-0.089-19.208-9.021-37.94-18.18
		c-38.837-18.989-38.681-20.227-38.483-21.794c0.092-0.729,0.647-1.294,1.417-1.441c5.509-1.051,25.915-8.005,33.181-16.504
		c1.494-3.112,3.12-35.84,3.797-55.838l0.057-1.669l45.545,6.467l-0.033,1.334c-0.515,21.042-0.015,56.006,3.518,60.244
		c4.988,5.988,17.068,13.272,17.19,13.345l0.173,0.104l15.921,16.677L442.842,965.879z M370.403,926.499
		c8.946,5.679,47.496,24.348,72.534,36.11l38.427-15.398l-12.581-13.179c-1.598-0.97-12.746-7.852-17.776-13.891
		c-5.115-6.138-4.449-51.149-4.242-60.903l-39.6-5.623c-0.599,17.191-2.119,53.254-4.394,55.941
		C395.661,917.958,377.996,924.391,370.403,926.499z"/>
	<path style="fill:#FFFFFF;" d="M409.137,859.08c-5.033-5.714-13.572-16.831-11.701-24.935c1.872-8.104,10.773-4.702,13.226-2.681
		c1.634,1.345,11.085-44.5,11.085-44.5l63.221,12.052c0,0-0.845,43.517-9.031,65.081c-8.22,21.654-19.972,24.666-36.359,21.031
		c-8.117-1.8-13.951-5.234-18.253-9.12L409.137,859.08z"/>
	<path style="fill:#0E2549;" d="M450.044,887.962c-3.554,0-7.179-0.568-10.789-1.369c-7.429-1.647-13.8-4.833-18.934-9.471
		c-0.615-0.555-0.663-1.504-0.108-2.119c0.555-0.615,1.502-0.664,2.118-0.108c4.745,4.285,10.657,7.236,17.573,8.769
		c15.375,3.41,26.533,1.237,34.632-20.099c7.225-19.033,8.68-56.018,8.899-63.314l-60.519-11.537
		c-0.699,3.345-2.518,11.984-4.466,20.587c-5.184,22.898-6.104,23.223-7.168,23.599c-0.542,0.19-1.129,0.087-1.573-0.277
		c-1.403-1.155-5.252-2.763-7.935-1.852c-1.475,0.501-2.415,1.715-2.876,3.712c-1.245,5.39,2.898,13.994,11.364,23.605
		c0.548,0.622,0.488,1.57-0.133,2.117c-0.622,0.548-1.571,0.488-2.117-0.134c-6.543-7.428-13.943-18.014-12.037-26.264
		c0.877-3.799,3.113-5.294,4.833-5.878c3.141-1.065,6.989,0.054,9.429,1.444c1.837-5.005,6.351-24.813,10.041-42.712l0.298-1.447
		l65.917,12.565l-0.025,1.266c-0.035,1.787-0.944,44.025-9.128,65.584C470.354,883.034,460.513,887.962,450.044,887.962z"/>
	<path style="fill:#0E2549;" d="M467.356,845.009c-0.11,0-0.22-0.007-0.332-0.022c-1.369-0.182-2.331-1.438-2.149-2.807l0.277-2.09
		c0.181-1.368,1.429-2.335,2.807-2.149c1.369,0.182,2.331,1.438,2.149,2.807l-0.276,2.09
		C469.665,844.094,468.591,845.009,467.356,845.009z"/>
	<path style="fill:#0E2549;" d="M439.419,838.786c-0.11,0-0.221-0.007-0.332-0.022c-1.369-0.182-2.331-1.439-2.149-2.808l0.278-2.09
		c0.181-1.369,1.435-2.333,2.807-2.148c1.369,0.182,2.331,1.439,2.148,2.808l-0.277,2.09
		C441.727,837.872,440.654,838.786,439.419,838.786z"/>
	<path style="fill:#0E2549;" d="M444.575,827.207c-0.249,0-0.502-0.063-0.736-0.194c-0.105-0.058-5.119-2.779-10.722-1.089
		c-0.795,0.237-1.63-0.211-1.869-1.004c-0.239-0.793,0.211-1.63,1.004-1.869c6.893-2.076,12.815,1.209,13.064,1.351
		c0.721,0.408,0.974,1.323,0.565,2.044C445.605,826.933,445.097,827.207,444.575,827.207z"/>
	<path style="fill:#0E2549;" d="M458.724,856.188c-1.211,0-2.68-0.079-4.465-0.269c-0.823-0.088-1.42-0.827-1.333-1.65
		c0.087-0.823,0.826-1.416,1.65-1.333c2.971,0.316,6.1,0.292,7.201-0.028c-0.07-0.185-0.181-0.434-0.282-0.664
		c-0.683-1.544-1.952-4.418-2.571-10.856c-0.079-0.825,0.525-1.557,1.35-1.637c0.821-0.079,1.558,0.525,1.637,1.35
		c0.572,5.956,1.672,8.444,2.328,9.931c0.475,1.076,0.924,2.092,0.318,3.335C464.313,854.866,463.668,856.188,458.724,856.188z
		 M461.85,853.146h0.01H461.85z"/>
	<path style="fill:#0E2549;" d="M475.24,836.252c-0.325,0-0.653-0.106-0.928-0.323c-0.056-0.044-4.632-3.572-9.798-2.983
		c-0.831,0.093-1.566-0.498-1.66-1.32c-0.095-0.823,0.497-1.567,1.319-1.661c6.436-0.737,11.776,3.433,12,3.611
		c0.649,0.515,0.759,1.458,0.244,2.107C476.121,836.057,475.683,836.252,475.24,836.252z"/>
	<path style="fill:#0E2549;" d="M460.987,862.299c1.491-0.471-2.81,7.059-8.751,5.677c-11.059-2.573-13.585-13.228-11.164-11.827
		C442.02,856.698,452.235,865.064,460.987,862.299z"/>
	<path style="fill:#E2474B;" d="M362.794,923.477c-30.306,10.496-12.5,117-12.5,117l19.55,68.832l96.509-2.539l37.075-94.237
		c0,0,21.64-51.908-7.167-74.833c-13.596-10.82-18.892-16.087-24.329-16.909c-16.366-2.473-18.986,56.722-81.919-0.994
		C384.898,915.105,370.613,920.769,362.794,923.477z"/>
	<path style="fill:#E2474B;" d="M369.379,1692.227c-2.615,24.806-1.559,65.914-1.559,65.914h17.563v-30.502l8.782,30.502h53.128
		v-18.81l-30.725-14.854C416.568,1724.477,371.082,1676.081,369.379,1692.227z"/>
	<path style="fill:#FFFFFF;" d="M406.795,1454.954l-2.501,235.577c0,0,14.221,34.887,13.167,36.093
		c-9.375,10.732-45.048-34.928-45.048-34.928l-29.637-236.742H406.795z"/>
	<path style="fill:#0E2549;" d="M413.707,1729.758c-0.077,0-0.154-0.001-0.232-0.003c-13.368-0.366-41.071-35.634-42.245-37.135
		l-0.255-0.326l-0.051-0.411l-29.849-238.429h67.236l-2.515,236.791c14.45,35.468,13.532,36.521,12.793,37.366
		C417.346,1729.036,415.703,1729.758,413.707,1729.758z M373.85,1691.098c7.971,10.143,29.883,35.39,39.707,35.658
		c1.009,0.015,1.78-0.216,2.414-0.761c-0.598-3.315-7.023-20.073-13.066-34.897l-0.114-0.28l0.002-0.302l2.485-234.062h-60.804
		L373.85,1691.098z"/>
	<path style="fill:#E2474B;" d="M533.723,1692.227c-2.616,24.806-1.559,65.914-1.559,65.914h17.563v-30.502l8.782,30.502h53.129
		v-18.81l-30.726-14.854C580.912,1724.477,535.425,1676.081,533.723,1692.227z"/>
	<path style="fill:#FFFFFF;" d="M529.422,1459.537l39.216,230.994c0,0,14.22,34.887,13.167,36.093
		c-9.375,10.732-45.048-34.928-45.048-34.928l-71.354-232.159H529.422z"/>
	<path style="fill:#0E2549;" d="M578.05,1729.758c-0.076,0-0.154-0.001-0.231-0.003c-13.368-0.366-41.072-35.634-42.244-37.135
		l-0.171-0.219l-0.081-0.265l-71.951-234.101h67.316l0.212,1.249l39.188,230.833c14.506,35.596,13.585,36.646,12.845,37.493
		C581.688,1729.036,580.046,1729.758,578.05,1729.758z M538.108,1690.99c7.898,10.069,29.933,35.496,39.792,35.766
		c1.01,0.015,1.78-0.216,2.414-0.761c-0.598-3.315-7.023-20.073-13.067-34.897l-0.09-0.315l-39.003-229.746h-60.723L538.108,1690.99
		z"/>
	<path style="fill:#0E2549;" d="M562.234,1739.282c-3.648-7.832-12.007-20.565-30.037-29.496l-1.65,48.354h19.275v-29.602
		l6.28,21.242l0,0l2.407,8.359h55.879v-18.858H562.234z"/>
	<path style="fill:#0E2549;" d="M365.104,1107.943c0,22.219-48.792,60.615-47.311,106.533
		c1.482,45.919,15.134,326.173,15.134,326.173l221.668-4.018c0,0-28.415-276.23-37.302-321.655
		c-8.887-45.425-40.838-105.537-43.801-108.5S365.104,1107.943,365.104,1107.943z"/>
	<path style="fill:#FFFFFF;" d="M463.221,942.819c0,0,11.66-15.098,22.154,6.673c12.713,26.375,30.293,135.152,38.256,139.16
		c7.964,4.008,33.833-68.84,33.833-68.84l15.501,40.742c0,0-0.991,73.814-43.892,91.968c-42.901,18.154-55.58-96.576-55.58-96.576
		L463.221,942.819z"/>
	<path style="fill:#0E2549;" d="M520.116,1155.97c-3.785,0-7.441-1.025-10.938-3.075c-27.993-16.409-36.814-93.51-37.176-96.783
		l-10.328-113.743l0.359-0.466c0.2-0.258,4.956-6.307,11.51-5.627c4.978,0.521,9.413,4.748,13.181,12.565
		c6.366,13.205,13.706,45.801,20.804,77.323c5.935,26.358,13.323,59.162,16.78,61.15c0.147,0.031,4.287,0.203,18.259-33.154
		c7.186-17.154,13.42-34.675,13.482-34.85l1.366-3.844l17.054,44.822l-0.004,0.286c-0.003,0.187-0.315,18.882-5.911,39.548
		c-7.465,27.575-20.916,46.172-38.897,53.781C526.403,1155.281,523.216,1155.97,520.116,1155.97z M464.771,943.31l10.215,112.501
		c0.084,0.758,9.009,78.847,35.709,94.496c5.578,3.268,11.396,3.543,17.793,0.834c40.208-17.014,42.835-85.368,42.97-90.326
		l-13.955-36.68c-5.421,14.914-23.281,62.461-31.859,65.904c-1.192,0.478-2.12,0.24-2.688-0.047
		c-4.217-2.122-8.831-20.877-18.354-63.169c-6.732-29.897-14.363-63.784-20.579-76.68c-3.286-6.817-6.917-10.479-10.792-10.885
		C469.198,938.843,465.847,942.112,464.771,943.31z"/>
	<path style="fill:#FFFFFF;" d="M489.595,1395.711l61.119,11.685c0,0-20.59-145.021-29.478-190.446
		c-8.887-45.425-29.944-98.746-32.907-101.709c-0.463-0.463,5.023-29.411,10.124-76.795c2.157-20.039-5.273-71.842-11.63-85.322
		c-10.752-22.801-5.382-31.272-21.53-33.146c-7.037-0.817-11.671,109.724-13.765,154.205L489.595,1395.711z"/>
	<path style="fill:#0E2549;" d="M552.495,1409.263l-64.261-12.284l-0.129-1.091l-38.08-321.653l0.439-9.422
		c4.003-86.445,7.61-140.979,13.218-145.744c0.675-0.575,1.346-0.633,1.785-0.582c11.708,1.359,13.229,6.486,15.992,15.793
		c1.408,4.745,3.159,10.649,6.722,18.204c6.722,14.256,13.87,66.574,11.765,86.123c-3.403,31.607-6.943,54.799-8.845,67.258
		c-0.648,4.244-1.175,7.698-1.279,8.858c4.662,6.811,24.506,59.101,32.888,101.938c8.793,44.943,29.285,189.073,29.49,190.523
		L552.495,1409.263z M490.955,1394.443l57.978,11.085c-2.561-17.947-20.969-146.385-29.169-188.291
		c-8.945-45.719-30.07-98.315-32.501-100.941c-0.687-0.686-0.687-0.686,0.871-10.884c1.899-12.437,5.433-35.585,8.828-67.127
		c2.224-20.658-5.425-71.648-11.496-84.522c-3.66-7.761-5.448-13.787-6.885-18.629c-2.748-9.262-3.695-12.458-13.105-13.624
		c-1.174,1.457-3.943,10.045-7.192,55.421c-2.117,29.575-3.746,64.747-4.823,88.02l-0.428,9.177L490.955,1394.443z
		 M489.803,1115.054L489.803,1115.054L489.803,1115.054z M489.392,1114.182c0.004,0.004,0.008,0.008,0.012,0.012
		C489.4,1114.189,489.396,1114.186,489.392,1114.182z"/>
	<path style="fill:#FFFFFF;" d="M365.104,1107.943c0,22.219-51.242,62.1-49.761,108.019c1.481,45.919-0.031,190.015-0.031,190.015
		l130.606-5.677l-6.037-328.324c-20.682-80.862-40.181-151.515-45.322-154.953c-10.343-6.915-39.448,5.516-45.767,9.204
		c-23.047,13.453-21.632,62.475-12.782,106.142C340.374,1053.885,365.104,1107.943,365.104,1107.943z"/>
	<path style="fill:#0E2549;" d="M313.796,1407.544l0.017-1.583c0.015-1.44,1.496-144.589,0.033-189.95
		c-0.898-27.832,17.197-53.45,31.737-74.034c9.55-13.521,17.815-25.221,18.018-33.714c-2.205-4.837-24.836-54.763-29.058-75.597
		c-5.441-26.848-15.02-91.09,13.496-107.735c4.063-2.371,35.529-17.064,47.357-9.155c1.216,0.814,4.064,2.718,17.441,49.275
		c7.538,26.237,17.127,62.087,28.5,106.554l0.047,0.345l6.063,329.785l-1.462,0.064L313.796,1407.544z M385.877,916.438
		c-12.009,0-30.423,7.639-36.327,11.084c-18.622,10.87-23.134,49.954-12.067,104.548c4.276,21.102,28.738,74.711,28.986,75.25
		l0.135,0.297v0.327c0,9.471-8.606,21.655-18.571,35.763c-14.282,20.219-32.055,45.381-31.19,72.206
		c1.382,42.836,0.144,172.629-0.014,188.496l127.564-5.545l-6.006-326.686c-35.322-138.09-43.12-152.723-44.668-153.915
		C391.788,916.974,389.056,916.438,385.877,916.438z"/>
	<path style="fill:#0E2549;" d="M390.651,1147.996c-0.572-0.6-1.522-0.621-2.12-0.049l-34.571,33
		c-0.599,0.572-0.622,1.521-0.049,2.121c0.294,0.309,0.689,0.464,1.085,0.464c0.373,0,0.746-0.138,1.036-0.415l15.134-14.445
		l-7.149,203.307c-0.022,0.628,0.468,1.154,1.096,1.176c0.013,0.001,0.027,0.001,0.04,0.001c0.609,0,1.114-0.483,1.135-1.097
		l7.231-205.635l17.083-16.307C391.201,1149.545,391.224,1148.596,390.651,1147.996z"/>
	<path style="fill:#0E2549;" d="M397.891,1739.282c-3.648-7.832-12.007-20.565-30.037-29.496l-1.65,48.354h19.274v-29.602
		l6.28,21.242l0,0l2.407,8.359h55.878v-18.858H397.891z"/>
	<polygon style="fill:#F9E5EF;" points="491.171,1002.245 491.171,1032.276 444.992,1032.368 444.992,1002.245 	"/>
	<path style="fill:#1B2746;" d="M443.492,1033.871v-33.125h49.179v33.028L443.492,1033.871z M446.492,1003.746v27.119l43.179-0.086
		v-27.033H446.492z"/>
	<path style="fill:#FFFFFF;" d="M458.244,1002.245h18.865l0,0c0-4.035-3.272-7.306-7.307-7.306h-4.252
		C461.515,994.939,458.244,998.21,458.244,1002.245L458.244,1002.245z"/>
	<path style="fill:#0E2549;" d="M478.608,1003.746h-21.865v-1.5c0-4.857,3.951-8.807,8.807-8.807h4.252
		c4.856,0,8.806,3.951,8.806,8.807V1003.746z M459.939,1000.746h15.473c-0.663-2.477-2.927-4.307-5.61-4.307h-4.252
		C462.867,996.439,460.602,998.269,459.939,1000.746z"/>
	<path style="fill:#E2474B;" d="M481.998,1011.579h-29H481.998z"/>
	<path style="fill:#0E2549;" d="M481.998,1013.079h-29c-0.829,0-1.5-0.672-1.5-1.5c0-0.829,0.671-1.5,1.5-1.5h29
		c0.828,0,1.5,0.671,1.5,1.5C483.498,1012.407,482.826,1013.079,481.998,1013.079z"/>
	<path style="fill:#E2474B;" d="M477.665,1019.579h-19.421H477.665z"/>
	<path style="fill:#0E2549;" d="M477.665,1021.079h-19.422c-0.828,0-1.5-0.672-1.5-1.5c0-0.829,0.672-1.5,1.5-1.5h19.422
		c0.828,0,1.5,0.671,1.5,1.5C479.165,1020.407,478.493,1021.079,477.665,1021.079z"/>
	<path style="fill:#0E2549;" d="M489.889,1163.076l7.692,7.052c0.288,0.265,0.652,0.395,1.014,0.395
		c0.405,0,0.811-0.164,1.106-0.486c0.56-0.61,0.519-1.56-0.092-2.119l-18-16.5c-0.611-0.562-1.56-0.519-2.119,0.092
		c-0.56,0.61-0.519,1.56,0.092,2.119l7.736,7.091l24.515,205.06c0.069,0.578,0.56,1.002,1.127,1.002
		c0.045,0,0.091-0.003,0.137-0.008c0.623-0.074,1.068-0.641,0.994-1.264L489.889,1163.076z"/>
	<path style="fill:#E2474B;" d="M451.529,923.457l300.044,603.882c0.17,0.343,0.585,0.482,0.927,0.313l49.47-24.542
		c0.342-0.17,0.482-0.586,0.312-0.928L502.239,898.3L451.529,923.457z"/>
	<path style="fill:#FFFFFF;" d="M829.038,1611.598c0.931,3.765-3.901,6.166-6.339,3.149l-28.832-35.682l-42.181-51.658
		c-0.283-0.35-0.169-0.872,0.234-1.072l49.239-24.89c0.403-0.199,0.887,0.025,0.995,0.462L829.038,1611.598z"/>
	<path style="fill:#0E2549;" d="M830.495,1611.24l-26.649-108.733c0.003-0.341-0.064-0.679-0.22-0.992l-0.107-0.215
		c-0.053-0.14-0.118-0.271-0.197-0.396L502.916,896.29l-53.398,26.49l300.711,605.225c0.148,0.3,0.363,0.549,0.619,0.748
		l41.852,51.255l28.832,35.682c1.017,1.258,2.452,1.927,3.942,1.926c0.777,0,1.569-0.182,2.324-0.557
		C830,1615.965,831.083,1613.627,830.495,1611.24z M501.563,900.31l298.196,600.163l-47.843,24.185L453.541,924.134L501.563,900.31z
		 M826.464,1614.372c-0.738,0.367-1.808,0.408-2.598-0.567l-28.838-35.688l-40.614-49.74l46.972-23.304l26.194,106.882l0.001,0.003
		C827.884,1613.179,827.202,1614.005,826.464,1614.372z"/>
	<polygon style="fill:#FFFFFF;" points="488.531,1096.649 537.556,1113.926 522.308,1149.505 468.832,1131.334 	"/>
	<path style="fill:#0E2549;" d="M793.69,1576.445c1.461,0.576,23.465-9.428,23.465-9.428s15.697,48.625,10.514,50.023
		C822.592,1618.412,793.69,1576.445,793.69,1576.445z"/>
	<polygon style="fill:#0E2549;" points="477.609,975.947 529.074,952.308 502.239,898.3 451.529,923.457 	"/>
	<path style="fill:#FFFFFF;" d="M589.144,1028.722c6.856,21.107-13.078,29.364-24.438,29.578
		c-20.667,0.389-21.322-17.6-14.824-22.118c1.945-1.352,14.898-12.31,14.898-12.31c0.74-0.334,0.613-1.42-0.19-1.637l-7.015-1.9
		c-2.555-0.691-3.065-4.141-0.783-5.482c2.448-1.439,6.443-2.445,12.897-1.403C584.204,1015.793,587.265,1022.935,589.144,1028.722z
		"/>
	<path style="fill:#0E2549;" d="M564.034,1059.867c-13.607,0-17.57-7.643-18.648-10.971c-1.732-5.347-0.182-11.363,3.606-13.996
		c1.436-0.998,9.863-8.067,13.929-11.5l-5.753-1.558c-1.786-0.483-3.101-1.986-3.349-3.827c-0.248-1.843,0.589-3.57,2.183-4.508
		c3.408-2.002,8.098-2.541,13.936-1.599c16.237,2.62,19.135,11.539,20.691,16.33l0,0c2.554,7.863,1.825,14.692-2.167,20.296
		c-5.426,7.617-15.826,11.177-23.727,11.324C564.499,1059.864,564.265,1059.867,564.034,1059.867z M565.663,1025.171
		c-1.424,1.204-12.989,10.972-14.889,12.292c-2.33,1.621-3.872,5.98-2.418,10.471c1.864,5.756,7.812,8.966,16.321,8.805
		c6.887-0.129,16.473-3.318,21.242-10.014c3.387-4.755,3.973-10.649,1.741-17.521c-1.956-6.02-4.973-12.075-18.219-14.213
		c-5.034-0.814-9.132-0.396-11.858,1.209c-0.717,0.421-0.708,1.119-0.67,1.399c0.031,0.229,0.199,0.994,1.07,1.229l7.015,1.899
		c1.025,0.277,1.741,1.138,1.825,2.19C566.897,1023.851,566.448,1024.708,565.663,1025.171z"/>
	<path style="fill:#FFFFFF;" d="M539.302,1149.509c-11.439-9.838-34.678-10.1-34.678-10.1l21.371-25.601
		c0,0,12.427,9.33,17.62,6.989c5.194-2.341,36.103-14.47,29.538-7.146c-4.605,5.14-10.578,10.12-13.731,12.635
		c-0.786,0.627-0.393,1.845,0.625,1.939c10.079,0.93,50.484,13.561,46.647,20.869
		C599.457,1162.88,564.505,1171.183,539.302,1149.509z"/>
	<path style="fill:#0E2549;" d="M575.174,1164.297c-13.325,0-26.569-4.809-36.85-13.65l0,0c-10.899-9.373-33.49-9.734-33.717-9.737
		l-3.159-0.036l24.309-29.119l1.139,0.855c4.533,3.4,12.914,8.26,16.103,6.821c2.147-0.968,9.368-3.892,16.333-6.266
		c12.964-4.419,14.889-3.622,15.838-2.323c0.751,1.025,0.448,2.308-0.899,3.812c-4.325,4.825-9.818,9.5-13.142,12.188
		c10.259,1.376,42.413,11.161,46.745,19.136c0.904,1.665,0.579,2.994,0.147,3.816c-3.319,6.323-11.997,11.513-22.646,13.545
		C582.003,1163.981,578.584,1164.297,575.174,1164.297z M540.28,1148.371c12.226,10.515,28.873,15.011,44.533,12.02
		c9.773-1.864,17.648-6.46,20.552-11.992c0.065-0.125,0.202-0.384-0.127-0.989c-3.618-6.661-36.174-16.845-45.33-17.69
		c-1.086-0.1-1.987-0.827-2.294-1.854c-0.302-1.007,0.041-2.086,0.872-2.75c3.079-2.454,8.88-7.29,13.391-12.285
		c-5.025,0.483-21.494,6.564-27.646,9.336c-5.012,2.259-14.542-3.899-17.981-6.32l-18.53,22.197
		C514.543,1138.48,530.962,1140.357,540.28,1148.371L540.28,1148.371z"/>
	<path style="fill:#FFFFFF;" d="M364.671,976.417l52.836,86.421l121.99,51.088l-16.388,38.238
		c-48.318-16.252-105.962-26.709-134.906-48.868c-40.792-31.231-47.497-94.056-47.497-94.056L364.671,976.417z"/>
	<path style="fill:#0E2549;" d="M523.943,1154.027l-1.312-0.441c-12.686-4.267-26.052-8.334-38.977-12.268
		c-37.489-11.407-72.9-22.183-94.96-37.945c-29.877-21.348-42.873-64.159-43.411-65.971c-0.236-0.794,0.216-1.629,1.01-1.865
		c0.795-0.233,1.63,0.216,1.866,1.01c0.129,0.435,13.252,43.645,42.28,64.385c21.66,15.477,56.842,26.183,94.09,37.517
		c12.501,3.805,25.415,7.734,37.747,11.854l15.247-35.577l-121.113-50.722l-39.636-80.216c-0.367-0.743-0.063-1.643,0.68-2.009
		c0.744-0.368,1.642-0.062,2.009,0.68l39.141,79.212l122.868,51.455L523.943,1154.027z"/>
	<path style="fill:#0E2549;" d="M483.727,836.286c0,0-9.357-18.771-13.732-31.143c-0.463-1.31-60.492,26.306-60.492,26.306
		l0.832-48.561l73.645,8.318L483.727,836.286z"/>
</g>
<g>
	<path style="fill:#EAB7C2;" d="M619.553,379.735l-3.97-2.971c-7.884-5.9-9.507-17.179-3.606-25.064l40.553-54.186
		c5.9-7.884,17.179-9.507,25.063-3.606l3.97,2.971c7.884,5.9,9.507,17.179,3.606,25.064l-40.553,54.185
		C638.716,384.013,627.438,385.636,619.553,379.735z"/>
	<path style="fill:#0E2549;" d="M690.021,308.454c-0.741-5.145-3.425-9.681-7.559-12.775l-3.971-2.971
		c-8.566-6.411-20.751-4.658-27.163,3.908l-20.275,27.091c0,0-0.001,0.001-0.001,0.001c0,0,0,0.001-0.001,0.001l-20.275,27.091
		c-3.094,4.134-4.39,9.244-3.65,14.388c0.741,5.145,3.425,9.681,7.559,12.775l3.97,2.971c3.375,2.526,7.4,3.854,11.563,3.854
		c0.936,0,1.881-0.067,2.826-0.203c5.144-0.74,9.681-3.425,12.775-7.559l20.275-27.092c0,0,0.001,0,0.001,0
		c0-0.001,0.001-0.001,0.001-0.002l20.275-27.091C689.464,318.707,690.761,313.598,690.021,308.454z M643.416,375.229
		c-2.614,3.493-6.449,5.761-10.801,6.387c-4.352,0.625-8.671-0.469-12.163-3.082l-3.97-2.972c-3.493-2.613-5.761-6.449-6.387-10.8
		c-0.627-4.351,0.468-8.671,3.082-12.163l19.378-25.892l30.238,22.631L643.416,375.229z M664.591,346.936l-30.238-22.63
		l19.377-25.892c2.615-3.493,6.45-5.761,10.801-6.387c0.801-0.115,1.599-0.172,2.393-0.172c3.519,0,6.921,1.122,9.77,3.255
		l3.97,2.971c3.493,2.613,5.761,6.449,6.387,10.8c0.627,4.351-0.468,8.671-3.081,12.163L664.591,346.936z"/>
	<path style="fill:#E2474B;" d="M492.308,614.595c0,0-158.036-117.515-98.271-185.35c31.217-35.431,99.346,35.813,99.346,35.813
		s74.476-67.343,99.85-34.381C645.4,498.445,492.308,614.595,492.308,614.595z"/>
	<path style="fill:#0E2549;" d="M538.039,560.018v-82.85l-15.029,36.107h-41.121l-23.04,46.429l-4.16-83.144l-14.265,35.491h-36.045
		c-0.829,0-1.5-0.671-1.5-1.5c0-0.829,0.671-1.5,1.5-1.5h34.017l18.606-46.291l4.268,85.314l18.758-37.799h40.979l20.03-48.122
		v85.608l19.52-37.486h34.779c0.829,0,1.5,0.671,1.5,1.5c0,0.829-0.671,1.5-1.5,1.5h-32.958L538.039,560.018z"/>
	<path style="fill:#0E2549;" d="M743.533,321.605c-3.328-24.802-16.116-46.823-36.007-62.005
		c-19.892-15.188-44.508-21.72-69.307-18.393c-24.802,3.327-46.823,16.114-62.006,36.005
		c-13.838,18.128-20.584,40.625-18.994,63.344c0.512,7.324,1.876,14.53,4.052,21.475c-20.995-9.708-44.358-15.137-68.967-15.137
		c-90.917,0-164.882,73.965-164.882,164.881s73.965,164.881,164.882,164.881c90.915,0,164.881-73.965,164.881-164.881
		c0-31.352-8.798-60.686-24.052-85.668c2.646,0.504,5.344,0.903,8.063,1.178c3.221,0.324,6.431,0.484,9.617,0.484
		c29.125,0,56.393-13.364,74.335-36.856C740.332,371.021,746.861,346.407,743.533,321.605z M492.304,673.657
		c-89.262,0-161.882-72.62-161.882-161.881s72.62-161.881,161.882-161.881c89.261,0,161.881,72.62,161.881,161.881
		S581.565,673.657,492.304,673.657z M722.765,389.092c-19.268,25.229-49.651,38.391-81.268,35.208
		c-3.59-0.362-7.144-0.943-10.577-1.715c-16.183-25.064-38.976-45.474-65.892-58.758c-2.628-7.542-4.253-15.438-4.815-23.479
		c-1.539-21.992,4.99-43.767,18.386-61.315c14.697-19.255,36.013-31.632,60.02-34.853c24.01-3.219,47.833,3.104,67.088,17.805
		c19.255,14.696,31.632,36.011,34.854,60.02C743.781,346.011,737.461,369.837,722.765,389.092z"/>
</g>
<g>
	<path style="fill:#0E2549;" d="M986.867,554.582c0-35.072-24.832-47.359-58.879-47.359h-52.48v167.934h21.76v-70.911h29.724
		l40.42,70.911h24.32l-42.622-73.31C971.826,596.23,986.867,580.679,986.867,554.582z M897.268,524.63h27.647
		c26.112,0,40.448,7.936,40.448,29.952c0,21.503-14.336,32.255-40.448,32.255h-27.647V524.63z"/>
	<path style="fill:#0E2549;" d="M1093.617,589.398l46.848-82.175h-22.784l-23.04,42.751c-4.096,7.68-7.424,14.592-12.031,24.576
		h-1.024c-5.376-9.984-9.216-16.896-13.567-24.576l-23.552-42.751h-23.808l46.848,81.151l-50.176,86.783h22.784l25.087-45.056
		c4.353-8.448,8.704-16.896,13.568-27.135h1.023c5.632,10.24,10.24,18.688,14.848,27.135l25.088,45.056h24.063L1093.617,589.398z"/>
	<path style="fill:#0E2549;" d="M674.684,719.915h19.006c13.919,0,23.326,4.704,23.326,18.527c0,13.343-9.503,19.487-23.326,19.487
		h-10.943v24.958h-8.063V719.915z M692.73,751.401c10.943,0,16.224-4.032,16.224-12.959c0-9.023-5.376-11.999-16.224-11.999h-9.983
		v24.958H692.73z"/>
	<path style="fill:#0E2549;" d="M775.576,782.887l-15.992-27.506c8.517-2.106,14.168-7.921,14.168-17.707
		c0-13.151-9.312-17.759-22.078-17.759h-19.679v62.972h8.159v-26.59H751.3l15.157,26.59H775.576z M740.154,726.443h10.367
		c9.792,0,15.167,2.976,15.167,11.231c0,8.063-5.375,12.095-15.167,12.095h-10.367V726.443z"/>
	<path style="fill:#0E2549;" d="M791.034,719.915h38.974v6.816h-30.91v19.678h26.11v6.816h-26.11v22.846h31.87v6.815h-39.933
		V719.915z"/>
	<path style="fill:#0E2549;" d="M844.122,774.727l4.799-5.568c4.8,4.704,11.328,7.775,18.431,7.775
		c8.64,0,13.632-4.128,13.632-9.887c0-6.72-4.897-8.639-11.232-11.327l-9.119-4.032c-6.24-2.496-13.536-6.912-13.536-16.223
		c0-9.6,8.64-16.703,20.639-16.703c7.871,0,14.782,3.168,19.39,7.775l-4.223,5.184c-4.128-3.648-8.928-5.856-15.455-5.856
		c-7.296,0-12.191,3.456-12.191,9.12c0,6.047,5.856,8.255,11.232,10.367l8.831,3.936c7.776,3.072,13.919,7.487,13.919,16.799
		c0,9.983-8.447,17.951-22.271,17.951C857.753,784.039,849.785,780.391,844.122,774.727z"/>
	<path style="fill:#0E2549;" d="M901.529,751.401c0-20.254,11.807-32.638,28.221-32.638c7.583,0,13.536,3.648,17.279,7.68
		l-4.607,5.087c-3.264-3.456-7.392-5.664-12.671-5.664c-11.999,0-19.871,9.695-19.871,25.342c0,15.839,7.872,25.726,19.871,25.726
		c5.76,0,10.175-2.496,14.111-6.912l4.608,4.896c-4.896,5.759-11.136,9.119-19.487,9.119
		C913.432,784.039,901.529,771.943,901.529,751.401z"/>
	<path style="fill:#0E2549;" d="M1005.974,782.887l-15.993-27.506c8.517-2.107,14.168-7.922,14.168-17.707
		c0-13.151-9.312-17.759-22.078-17.759h-19.679v62.972h8.159v-26.59h11.146l15.157,26.59H1005.974z M970.551,726.443h10.368
		c9.791,0,15.167,2.976,15.167,11.231c0,8.063-5.376,12.095-15.167,12.095h-10.368V726.443z"/>
	<path style="fill:#0E2549;" d="M1019.607,776.071h15.647v-49.34h-15.647v-6.816h39.357v6.816h-15.646v49.34h15.646v6.815h-39.357
		V776.071z"/>
	<path style="fill:#0E2549;" d="M1077.879,719.915h19.007c13.919,0,23.326,4.704,23.326,18.527c0,13.343-9.503,19.487-23.326,19.487
		h-10.943v24.958h-8.063V719.915z M1095.926,751.401c10.943,0,16.223-4.032,16.223-12.959c0-9.023-5.375-11.999-16.223-11.999
		h-9.983v24.958H1095.926z"/>
	<path style="fill:#0E2549;" d="M1150.453,726.731h-20.831v-6.816h49.725v6.816h-20.83v56.156h-8.063V726.731z"/>
	<path style="fill:#0E2549;" d="M1192.404,776.071h15.647v-49.34h-15.647v-6.816h39.357v6.816h-15.646v49.34h15.646v6.815h-39.357
		V776.071z"/>
	<path style="fill:#0E2549;" d="M1245.492,751.113c0-20.35,9.983-32.35,24.19-32.35s24.19,12,24.19,32.35
		c0,20.639-9.983,32.926-24.19,32.926S1245.492,771.752,1245.492,751.113z M1285.521,751.113c0-15.838-6.336-25.246-15.839-25.246
		s-15.839,9.408-15.839,25.246c0,16.127,6.336,25.822,15.839,25.822S1285.521,767.24,1285.521,751.113z"/>
	<path style="fill:#0E2549;" d="M1306.355,719.915h8.832l20.158,39.549l6.048,13.055h0.191c-0.288-6.24-1.056-13.343-1.056-19.967
		v-32.638h7.68v62.972h-8.832l-20.158-39.549l-6.048-13.055h-0.191c0.288,6.431,1.056,13.151,1.056,19.678v32.926h-7.68V719.915z"/>
</g>
<path style="fill:#0E2549;" d="M1385.412,939.222H671.059c-0.829,0-1.5-0.671-1.5-1.5c0-0.829,0.671-1.5,1.5-1.5h714.354
	c0.828,0,1.5,0.671,1.5,1.5C1386.912,938.55,1386.24,939.222,1385.412,939.222z"/>
<path style="fill:#0E2549;" d="M1385.412,1021.079H671.059c-0.829,0-1.5-0.672-1.5-1.5c0-0.829,0.671-1.5,1.5-1.5h714.354
	c0.828,0,1.5,0.671,1.5,1.5C1386.912,1020.407,1386.24,1021.079,1385.412,1021.079z"/>
<path style="fill:#0E2549;" d="M1385.412,1098.149H671.059c-0.829,0-1.5-0.672-1.5-1.5s0.671-1.5,1.5-1.5h714.354
	c0.828,0,1.5,0.672,1.5,1.5S1386.24,1098.149,1385.412,1098.149z"/>
<path style="fill:#0E2549;" d="M1163.765,1175.22H671.059c-0.829,0-1.5-0.672-1.5-1.5s0.671-1.5,1.5-1.5h492.706
	c0.828,0,1.5,0.672,1.5,1.5S1164.593,1175.22,1163.765,1175.22z"/>
<path style="fill:#0E2549;" d="M1385.66,1371.002h-248.117c-0.828,0-1.5-0.672-1.5-1.5s0.672-1.5,1.5-1.5h248.117
	c0.828,0,1.5,0.672,1.5,1.5S1386.488,1371.002,1385.66,1371.002z"/>
<path style="fill:#0E2549;" d="M1328.711,1405.034h-191.168c-0.828,0-1.5-0.672-1.5-1.5s0.672-1.5,1.5-1.5h191.168
	c0.828,0,1.5,0.672,1.5,1.5S1329.539,1405.034,1328.711,1405.034z"/>
</svg>
